<svg width="31" height="42" viewBox="0 0 31 42" fill="none" xmlns="http://www.w3.org/2000/svg">
<path d="M26.1079 12.3291L16.0518 2.28025C15.9794 2.2077 15.8933 2.15015 15.7987 2.11088C15.704 2.07161 15.6025 2.05139 15.5 2.05139C15.3975 2.05139 15.296 2.07161 15.2013 2.11088C15.1067 2.15015 15.0206 2.2077 14.9482 2.28025L4.89209 12.3291C4.59912 12.6221 4.43311 13.02 4.43311 13.435C4.43311 14.2969 5.13379 14.9975 5.99561 14.9975H7.05518V22.1679C7.05518 22.6001 7.4043 22.9492 7.83643 22.9492H13.9375V17.4804H16.6719V22.9492H23.1636C23.5957 22.9492 23.9448 22.6001 23.9448 22.1679V14.9975H25.0044C25.4194 14.9975 25.8174 14.834 26.1104 14.5386C26.7183 13.9282 26.7183 12.9394 26.1079 12.3291Z" fill="white"/>
<path d="M5.973 35.5845H2.4915V39H0.891V31.047H2.4915V34.237H5.973V31.047H7.579V39H5.973V35.5845ZM11.444 39.11C10.8866 39.11 10.4008 38.9908 9.98645 38.7525C9.57579 38.5142 9.25679 38.1768 9.02945 37.7405C8.80579 37.3042 8.69395 36.7872 8.69395 36.1895C8.69395 35.5918 8.80579 35.0693 9.02945 34.622C9.25679 34.1747 9.57579 33.8263 9.98645 33.577C10.4008 33.3277 10.8885 33.203 11.4495 33.203C12.0105 33.203 12.4963 33.3258 12.907 33.5715C13.3176 33.8172 13.6348 34.1637 13.8585 34.611C14.0821 35.0547 14.194 35.5808 14.194 36.1895C14.194 36.7615 14.084 37.2675 13.864 37.7075C13.6476 38.1438 13.3341 38.4867 12.9235 38.736C12.5165 38.9853 12.0233 39.11 11.444 39.11ZM11.4495 37.9165C11.7318 37.9165 11.9591 37.834 12.1315 37.669C12.3038 37.504 12.4285 37.2877 12.5055 37.02C12.5861 36.7487 12.6265 36.4535 12.6265 36.1345C12.6265 35.8338 12.5898 35.5515 12.5165 35.2875C12.4431 35.0198 12.3203 34.8035 12.148 34.6385C11.9793 34.4698 11.7465 34.3855 11.4495 34.3855C11.1671 34.3855 10.938 34.4643 10.762 34.622C10.5896 34.7797 10.4631 34.9905 10.3825 35.2545C10.3018 35.5185 10.2615 35.8118 10.2615 36.1345C10.2615 36.4315 10.2981 36.7175 10.3715 36.9925C10.4448 37.2638 10.5676 37.4857 10.74 37.658C10.9123 37.8303 11.1488 37.9165 11.4495 37.9165ZM15.2646 39V33.313H16.8376V34.116C17.01 33.8667 17.241 33.6522 17.5306 33.4725C17.824 33.2928 18.1925 33.203 18.6361 33.203C18.9258 33.203 19.221 33.28 19.5216 33.434C19.826 33.588 20.0625 33.8153 20.2311 34.116C20.4145 33.8557 20.6546 33.6393 20.9516 33.467C21.2523 33.291 21.586 33.203 21.9526 33.203C22.235 33.203 22.5191 33.2672 22.8051 33.3955C23.0911 33.5238 23.3295 33.7365 23.5201 34.0335C23.7145 34.3305 23.8116 34.7357 23.8116 35.249V39H22.2056V35.447C22.2056 35.1023 22.1103 34.8603 21.9196 34.721C21.729 34.5817 21.52 34.512 21.2926 34.512C21.1496 34.512 21.0048 34.5413 20.8581 34.6C20.7115 34.655 20.5868 34.7448 20.4841 34.8695C20.3815 34.9942 20.3301 35.1573 20.3301 35.359V39H18.7296V35.304C18.7296 35.0473 18.6325 34.8512 18.4381 34.7155C18.2438 34.5798 18.0403 34.512 17.8276 34.512C17.6076 34.512 17.3931 34.5817 17.1841 34.721C16.9751 34.8603 16.8706 35.073 16.8706 35.359V39H15.2646ZM26.4352 36.525C26.4316 36.9613 26.5361 37.3078 26.7487 37.5645C26.9614 37.8212 27.2602 37.9495 27.6452 37.9495C27.9202 37.9495 28.1604 37.8908 28.3657 37.7735C28.5747 37.6562 28.7196 37.4637 28.8002 37.196H30.2467C30.1844 37.5993 30.0231 37.944 29.7627 38.23C29.5061 38.516 29.1944 38.7342 28.8277 38.8845C28.4611 39.0348 28.0797 39.11 27.6837 39.11C27.1191 39.11 26.6241 38.9927 26.1987 38.758C25.7734 38.5197 25.4416 38.1842 25.2032 37.7515C24.9649 37.3188 24.8457 36.8092 24.8457 36.2225C24.8457 35.6542 24.9539 35.1427 25.1702 34.688C25.3866 34.2297 25.7001 33.8685 26.1107 33.6045C26.5251 33.3368 27.0219 33.203 27.6012 33.203C28.1806 33.203 28.6664 33.3258 29.0587 33.5715C29.4547 33.8135 29.7517 34.1527 29.9497 34.589C30.1514 35.0217 30.2522 35.5222 30.2522 36.0905V36.525H26.4352ZM26.4297 35.568H28.7507C28.7507 35.2233 28.6554 34.93 28.4647 34.688C28.2741 34.446 27.9862 34.325 27.6012 34.325C27.3519 34.325 27.1392 34.3855 26.9632 34.5065C26.7909 34.6275 26.6589 34.7833 26.5672 34.974C26.4756 35.161 26.4297 35.359 26.4297 35.568Z" fill="white"/>
</svg>
