<svg width="34" height="42" viewBox="0 0 34 42" fill="none" xmlns="http://www.w3.org/2000/svg">
<path d="M17.5 2.05078C15.8457 2.05078 14.375 1.5625 14.375 1.5625V1.66016C14.375 2.48896 14.7042 3.28381 15.2903 3.86987C15.8763 4.45592 16.6712 4.78516 17.5 4.78516C18.3288 4.78516 19.1237 4.45592 19.7097 3.86987C20.2958 3.28381 20.625 2.48896 20.625 1.66016V1.5625C20.625 1.5625 19.1543 2.05078 17.5 2.05078Z" fill="white"/>
<path d="M22.1875 2.14844C21.9194 4.48047 19.9028 6.29883 17.5 6.29883C15.0972 6.29883 13.0806 4.48047 12.8125 2.14844L5.78125 4.58984L6.66016 10.1562L9.67334 10.5186C10.019 10.5625 10.02 10.5625 10.02 10.9185L9.6875 23.4375H25.3125L24.98 10.9185C24.9697 10.5767 24.9697 10.5767 25.3267 10.5186L28.3398 10.1562L29.2188 4.58984L22.1875 2.14844Z" fill="white"/>
<path d="M3.707 36.789C3.707 37.295 3.652 37.7203 3.542 38.065C3.432 38.4097 3.23033 38.67 2.937 38.846C2.64367 39.022 2.222 39.11 1.672 39.11C1.419 39.11 1.15867 39.088 0.891 39.044C0.623333 39.0037 0.427167 38.967 0.3025 38.934L0.3355 37.4655C0.441833 37.4875 0.562833 37.5168 0.6985 37.5535C0.837833 37.5902 0.991833 37.6085 1.1605 37.6085C1.52717 37.6085 1.77467 37.5113 1.903 37.317C2.035 37.119 2.101 36.8 2.101 36.36V31.047H3.707V36.789ZM6.43328 36.525C6.42961 36.9613 6.53411 37.3078 6.74678 37.5645C6.95945 37.8212 7.25828 37.9495 7.64328 37.9495C7.91828 37.9495 8.15845 37.8908 8.36378 37.7735C8.57278 37.6562 8.71761 37.4637 8.79828 37.196H10.2448C10.1824 37.5993 10.0211 37.944 9.76078 38.23C9.50411 38.516 9.19245 38.7342 8.82578 38.8845C8.45911 39.0348 8.07778 39.11 7.68178 39.11C7.11711 39.11 6.62211 38.9927 6.19678 38.758C5.77145 38.5197 5.43961 38.1842 5.20128 37.7515C4.96295 37.3188 4.84378 36.8092 4.84378 36.2225C4.84378 35.6542 4.95195 35.1427 5.16828 34.688C5.38461 34.2297 5.69811 33.8685 6.10878 33.6045C6.52311 33.3368 7.01995 33.203 7.59928 33.203C8.17861 33.203 8.66445 33.3258 9.05678 33.5715C9.45278 33.8135 9.74978 34.1527 9.94778 34.589C10.1494 35.0217 10.2503 35.5222 10.2503 36.0905V36.525H6.43328ZM6.42778 35.568H8.74878C8.74878 35.2233 8.65345 34.93 8.46278 34.688C8.27211 34.446 7.98428 34.325 7.59928 34.325C7.34995 34.325 7.13728 34.3855 6.96128 34.5065C6.78895 34.6275 6.65695 34.7833 6.56528 34.974C6.47361 35.161 6.42778 35.359 6.42778 35.568ZM11.3652 39V33.313H12.9107V34.6605C13.0464 34.2242 13.2682 33.8722 13.5762 33.6045C13.8842 33.3368 14.2637 33.203 14.7147 33.203C14.8357 33.203 14.9182 33.214 14.9622 33.236V34.765C14.9292 34.754 14.8889 34.7467 14.8412 34.743C14.7972 34.7357 14.7569 34.7302 14.7202 34.7265C14.0859 34.6715 13.6349 34.7558 13.3672 34.9795C13.1032 35.2032 12.9712 35.5057 12.9712 35.887V39H11.3652ZM18.062 39.11C17.6623 39.11 17.281 39.0458 16.918 38.9175C16.555 38.7855 16.2452 38.5802 15.9885 38.3015C15.7318 38.0228 15.5705 37.658 15.5045 37.207H16.896C16.9657 37.5113 17.1197 37.7222 17.358 37.8395C17.6 37.9532 17.831 38.01 18.051 38.01C18.359 38.01 18.6065 37.9623 18.7935 37.867C18.9842 37.768 19.0795 37.6177 19.0795 37.416C19.0795 37.262 19.0227 37.1392 18.909 37.0475C18.799 36.9558 18.6157 36.8862 18.359 36.8385L17.358 36.6295C16.8557 36.5232 16.4505 36.3435 16.1425 36.0905C15.8382 35.8338 15.6842 35.4708 15.6805 35.0015C15.6768 34.4882 15.8785 34.061 16.2855 33.72C16.6962 33.3753 17.2902 33.203 18.0675 33.203C18.7678 33.203 19.327 33.3588 19.745 33.6705C20.1667 33.9785 20.3812 34.4112 20.3885 34.9685H19.0465C19.0062 34.7485 18.8962 34.5798 18.7165 34.4625C18.5405 34.3415 18.3187 34.281 18.051 34.281C17.7723 34.281 17.5432 34.3305 17.3635 34.4295C17.1838 34.5285 17.094 34.6788 17.094 34.8805C17.094 35.0308 17.1673 35.15 17.314 35.238C17.4607 35.3223 17.688 35.3957 17.996 35.458L18.92 35.667C19.3417 35.7697 19.6625 35.92 19.8825 36.118C20.1062 36.316 20.2565 36.525 20.3335 36.745C20.4142 36.9613 20.4545 37.1557 20.4545 37.328C20.4545 37.8963 20.2327 38.3363 19.789 38.648C19.3453 38.956 18.7697 39.11 18.062 39.11ZM22.9011 36.525C22.8974 36.9613 23.0019 37.3078 23.2146 37.5645C23.4272 37.8212 23.7261 37.9495 24.1111 37.9495C24.3861 37.9495 24.6262 37.8908 24.8316 37.7735C25.0406 37.6562 25.1854 37.4637 25.2661 37.196H26.7126C26.6502 37.5993 26.4889 37.944 26.2286 38.23C25.9719 38.516 25.6602 38.7342 25.2936 38.8845C24.9269 39.0348 24.5456 39.11 24.1496 39.11C23.5849 39.11 23.0899 38.9927 22.6646 38.758C22.2392 38.5197 21.9074 38.1842 21.6691 37.7515C21.4307 37.3188 21.3116 36.8092 21.3116 36.2225C21.3116 35.6542 21.4197 35.1427 21.6361 34.688C21.8524 34.2297 22.1659 33.8685 22.5766 33.6045C22.9909 33.3368 23.4877 33.203 24.0671 33.203C24.6464 33.203 25.1322 33.3258 25.5246 33.5715C25.9206 33.8135 26.2176 34.1527 26.4156 34.589C26.6172 35.0217 26.7181 35.5222 26.7181 36.0905V36.525H22.9011ZM22.8956 35.568H25.2166C25.2166 35.2233 25.1212 34.93 24.9306 34.688C24.7399 34.446 24.4521 34.325 24.0671 34.325C23.8177 34.325 23.6051 34.3855 23.4291 34.5065C23.2567 34.6275 23.1247 34.7833 23.0331 34.974C22.9414 35.161 22.8956 35.359 22.8956 35.568ZM28.4714 40.815C28.0828 40.815 27.8078 40.782 27.6464 40.716C27.4888 40.6537 27.4099 40.6225 27.4099 40.6225V39.5995L27.9709 39.6215C28.3009 39.6398 28.5448 39.6142 28.7024 39.5445C28.8638 39.4785 28.9719 39.3978 29.0269 39.3025C29.0856 39.2072 29.1259 39.132 29.1479 39.077L29.2524 38.7635L27.0414 33.313H28.6309L29.9949 37.02L31.3754 33.313H32.9429L30.6384 39.033C30.4404 39.517 30.2296 39.8873 30.0059 40.144C29.7859 40.4007 29.5494 40.5767 29.2964 40.672C29.0434 40.7673 28.7684 40.815 28.4714 40.815Z" fill="white"/>
</svg>
