<svg width="35" height="10" viewBox="0 0 35 10" fill="none" xmlns="http://www.w3.org/2000/svg">
<path d="M0.891 9V1.047H3.817C4.39633 1.047 4.91517 1.14783 5.3735 1.3495C5.83183 1.5475 6.193 1.84083 6.457 2.2295C6.72467 2.61817 6.8585 3.093 6.8585 3.654C6.8585 4.446 6.6 5.062 6.083 5.502C5.56967 5.942 4.884 6.162 4.026 6.162H2.508V9H0.891ZM2.4915 4.919H3.982C4.38167 4.919 4.70983 4.79067 4.9665 4.534C5.22683 4.27367 5.357 3.95283 5.357 3.5715C5.357 3.1755 5.22133 2.862 4.95 2.631C4.67867 2.39633 4.34867 2.279 3.96 2.279H2.4915V4.919ZM7.86328 9V3.313H9.40878V4.6605C9.54445 4.22417 9.76628 3.87217 10.0743 3.6045C10.3823 3.33683 10.7618 3.203 11.2128 3.203C11.3338 3.203 11.4163 3.214 11.4603 3.236V4.765C11.4273 4.754 11.3869 4.74667 11.3393 4.743C11.2953 4.73567 11.2549 4.73017 11.2183 4.7265C10.5839 4.6715 10.1329 4.75583 9.86528 4.9795C9.60128 5.20317 9.46928 5.50567 9.46928 5.887V9H7.86328ZM14.7418 9.11C14.1845 9.11 13.6986 8.99083 13.2843 8.7525C12.8736 8.51417 12.5546 8.17683 12.3273 7.7405C12.1036 7.30417 11.9918 6.78717 11.9918 6.1895C11.9918 5.59183 12.1036 5.06933 12.3273 4.622C12.5546 4.17467 12.8736 3.82633 13.2843 3.577C13.6986 3.32767 14.1863 3.203 14.7473 3.203C15.3083 3.203 15.7941 3.32583 16.2048 3.5715C16.6155 3.81717 16.9326 4.16367 17.1563 4.611C17.38 5.05467 17.4918 5.58083 17.4918 6.1895C17.4918 6.7615 17.3818 7.2675 17.1618 7.7075C16.9455 8.14383 16.632 8.48667 16.2213 8.736C15.8143 8.98533 15.3211 9.11 14.7418 9.11ZM14.7473 7.9165C15.0296 7.9165 15.257 7.834 15.4293 7.669C15.6016 7.504 15.7263 7.28767 15.8033 7.02C15.884 6.74867 15.9243 6.4535 15.9243 6.1345C15.9243 5.83383 15.8876 5.5515 15.8143 5.2875C15.741 5.01983 15.6181 4.8035 15.4458 4.6385C15.2771 4.46983 15.0443 4.3855 14.7473 4.3855C14.465 4.3855 14.2358 4.46433 14.0598 4.622C13.8875 4.77967 13.761 4.9905 13.6803 5.2545C13.5996 5.5185 13.5593 5.81183 13.5593 6.1345C13.5593 6.4315 13.596 6.7175 13.6693 6.9925C13.7426 7.26383 13.8655 7.48567 14.0378 7.658C14.2101 7.83033 14.4466 7.9165 14.7473 7.9165ZM21.8611 3.313V4.4295H20.6621V9H19.0561V4.4295H18.0056V3.313H19.0561V2.4935C19.0561 2.03517 19.19 1.6795 19.4576 1.4265C19.729 1.1735 20.1121 1.047 20.6071 1.047H21.9106L21.9161 2.114H21.1681C20.9628 2.114 20.8216 2.16533 20.7446 2.268C20.6713 2.367 20.6346 2.532 20.6346 2.763V3.313H21.8611ZM24.4351 1.0525V2.499H22.8731V1.0525H24.4351ZM24.4186 3.313V9H22.8841V3.313H24.4186ZM27.7252 9.099C27.3035 9.099 26.9698 9.0495 26.7242 8.9505C26.4822 8.8515 26.3025 8.72133 26.1852 8.56C26.0678 8.395 25.9927 8.2135 25.9597 8.0155C25.9267 7.81383 25.9102 7.61033 25.9102 7.405V0.827H27.4832V7.207C27.4832 7.416 27.529 7.5865 27.6207 7.7185C27.7123 7.8505 27.881 7.92933 28.1267 7.955L28.3962 7.9715V8.9615C28.2862 9.00183 28.1725 9.03483 28.0552 9.0605C27.9415 9.08617 27.8315 9.099 27.7252 9.099ZM30.7321 6.525C30.7284 6.96133 30.8329 7.30783 31.0456 7.5645C31.2583 7.82117 31.5571 7.9495 31.9421 7.9495C32.2171 7.9495 32.4573 7.89083 32.6626 7.7735C32.8716 7.65617 33.0164 7.46367 33.0971 7.196H34.5436C34.4813 7.59933 34.3199 7.944 34.0596 8.23C33.8029 8.516 33.4913 8.73417 33.1246 8.8845C32.7579 9.03483 32.3766 9.11 31.9806 9.11C31.4159 9.11 30.9209 8.99267 30.4956 8.758C30.0703 8.51967 29.7384 8.18417 29.5001 7.7515C29.2618 7.31883 29.1426 6.80917 29.1426 6.2225C29.1426 5.65417 29.2508 5.14267 29.4671 4.688C29.6834 4.22967 29.9969 3.8685 30.4076 3.6045C30.8219 3.33683 31.3188 3.203 31.8981 3.203C32.4774 3.203 32.9633 3.32583 33.3556 3.5715C33.7516 3.8135 34.0486 4.15267 34.2466 4.589C34.4483 5.02167 34.5491 5.52217 34.5491 6.0905V6.525H30.7321ZM30.7266 5.568H33.0476C33.0476 5.22333 32.9523 4.93 32.7616 4.688C32.5709 4.446 32.2831 4.325 31.8981 4.325C31.6488 4.325 31.4361 4.3855 31.2601 4.5065C31.0878 4.6275 30.9558 4.78333 30.8641 4.974C30.7724 5.161 30.7266 5.359 30.7266 5.568Z" fill="#6AB1D7"/>
</svg>
